<?xml version="1.0" encoding="UTF-8"?>
<svg version="1.1" xmlns="http://www.w3.org/2000/svg" width="250" height="251">
<path d="M0 0 C1.08279739 -0.00101212 1.08279739 -0.00101212 2.18746948 -0.00204468 C12.62386462 0.0134941 22.50931645 0.34305965 32.625 3.25 C33.85089844 3.5903125 35.07679688 3.930625 36.33984375 4.28125 C68.36930162 14.06527428 95.88709752 36.21745102 111.9375 65.625 C121.6478033 84.15863123 125.85754995 103.88023199 125.875 124.6875 C125.87567474 125.40686737 125.87634949 126.12623474 125.87704468 126.86740112 C125.86149018 137.28528005 125.52678729 147.15224828 122.625 157.25 C122.2846875 158.47589844 121.944375 159.70179688 121.59375 160.96484375 C111.80972572 192.99430162 89.65754898 220.51209752 60.25 236.5625 C32.1094515 251.306144 -3.82679317 255.63516338 -34.375 246.25 C-35.0963916 246.03569336 -35.8177832 245.82138672 -36.56103516 245.60058594 C-56.80243078 239.45164108 -72.98609691 228.72096852 -88.375 214.25 C-89.26058594 213.46109375 -89.26058594 213.46109375 -90.1640625 212.65625 C-109.77834935 194.43634373 -123.30295395 164.3915759 -124.53613281 137.77172852 C-124.58208819 133.78509978 -124.62165638 129.79939837 -124.625 125.8125 C-124.62567474 125.09313263 -124.62634949 124.37376526 -124.62704468 123.63259888 C-124.61149018 113.21471995 -124.27678729 103.34775172 -121.375 93.25 C-121.0346875 92.02410156 -120.694375 90.79820313 -120.34375 89.53515625 C-110.56008402 57.50687132 -88.40790429 29.98596937 -59 13.9375 C-40.54892003 4.28190456 -20.71014232 0.01726455 0 0 Z " fill="#0866FF" transform="translate(124.375,-0.24999999999999997)"/>
<path d="M0 0 C0 11.55 0 23.1 0 35 C-12 35.3125 -12 35.3125 -15.734375 35.38793945 C-23.43944576 35.6443177 -29.66906724 36.26123307 -35.8125 41.3125 C-40.55346644 47.13711591 -42.00043368 52.7243843 -42.31640625 60.08203125 C-42.35451416 60.9222583 -42.39262207 61.76248535 -42.43188477 62.62817383 C-42.47498779 63.67900146 -42.51809082 64.7298291 -42.5625 65.8125 C-42.706875 69.174375 -42.85125 72.53625 -43 76 C-29.47 76 -15.94 76 -2 76 C-2.61694403 80.93555224 -3.25580428 85.71207175 -4.15625 90.58203125 C-4.48302734 92.35030273 -4.48302734 92.35030273 -4.81640625 94.15429688 C-5.04199219 95.36150391 -5.26757812 96.56871094 -5.5 97.8125 C-5.72558594 99.03904297 -5.95117188 100.26558594 -6.18359375 101.52929688 C-7.87211762 110.61635287 -7.87211762 110.61635287 -9 114 C-20.22 114 -31.44 114 -43 114 C-43 142.71 -43 171.42 -43 201 C-74 201 -74 201 -88 198 C-88 170.28 -88 142.56 -88 114 C-96.58 114 -105.16 114 -114 114 C-114 101.46 -114 88.92 -114 76 C-105.42 76 -96.84 76 -88 76 C-88.04640625 73.875625 -88.0928125 71.75125 -88.140625 69.5625 C-88.50659937 48.43005634 -88.69869808 28.97252983 -74 12 C-53.13941143 -6.38796455 -25.55574692 -4.90670341 0 0 Z " fill="#FEFEFF" transform="translate(183,49)"/>
</svg>
