<?xml version="1.0" encoding="UTF-8"?>
<svg version="1.1" xmlns="http://www.w3.org/2000/svg" width="250" height="250">
<path d="M0 0 C2.45556142 -0.0006761 4.91112277 -0.00164865 7.36668396 -0.00289917 C12.47712856 -0.00436148 17.58755552 -0.0022691 22.69799805 0.00244141 C29.19164973 0.00814081 35.68526008 0.0048489 42.17891026 -0.00113106 C47.23834027 -0.00477398 52.29776076 -0.00358114 57.35719109 -0.00100327 C59.74936872 -0.00034444 62.14154727 -0.0011251 64.53372383 -0.00348282 C75.74476782 -0.01211328 86.9399957 0.03218999 98.14038086 0.56298828 C99.33880914 0.61792859 99.33880914 0.61792859 100.5614481 0.67397881 C116.19926462 1.52215369 128.6432096 7.29334999 139.93359375 18.1328125 C149.25820104 28.68665239 152.86735712 41.54122226 153.48779297 55.30249023 C153.52990339 56.22085631 153.57201382 57.13922239 153.61540031 58.08541775 C154.10635361 69.85975454 154.07792098 81.63552321 154.06640625 93.41796875 C154.06708232 95.89595041 154.06805485 98.37393201 154.06930542 100.85191345 C154.07076788 106.00943645 154.06867488 111.16694195 154.06396484 116.32446289 C154.05826546 122.8786486 154.06155725 129.43279336 154.06753731 135.98697758 C154.07117986 141.0927307 154.06998755 146.19847439 154.06740952 151.30422783 C154.06675058 153.71873416 154.06753173 156.13324139 154.06988907 158.54774666 C154.07848874 169.82496329 154.03757235 181.08676184 153.50341797 192.35327148 C153.44847766 193.55046484 153.44847766 193.55046484 153.39242744 194.77184391 C152.62565804 208.88699453 147.82883278 221.82913959 137.93359375 232.1328125 C123.75645728 244.06364633 109.74963739 247.49650449 91.37890625 247.8125 C89.98624063 247.84516872 88.59359143 247.87854372 87.20095825 247.91256714 C70.73980894 248.28664746 54.27303568 248.28826247 37.80859375 248.2578125 C36.18940232 248.25553201 34.57021083 248.2532945 32.95101929 248.25109863 C22.65159682 248.23546726 12.35236437 248.19874345 2.0530777 248.14396667 C0.03219408 248.1333314 -1.98869418 248.12358861 -4.00958252 248.1138916 C-10.63901821 248.07949736 -17.26739428 248.02344929 -23.8961792 247.92327881 C-25.76577161 247.8968048 -27.63545978 247.87626103 -29.50518799 247.86236572 C-47.60512144 247.71162689 -63.89871202 244.93465002 -77.75390625 232.2578125 C-88.16265931 221.34204282 -93.06150274 207.66273376 -93.68310547 192.74633789 C-93.72070417 191.94062631 -93.75830288 191.13491472 -93.79704094 190.30478764 C-94.28177284 178.6486877 -94.21022824 166.98013703 -94.19921875 155.31640625 C-94.19989442 152.76351411 -94.20086662 150.21062203 -94.20211792 147.6577301 C-94.20358226 142.33862631 -94.20157979 137.01953999 -94.19677734 131.70043945 C-94.19133534 125.60364612 -94.19310412 119.50688625 -94.19860375 113.41009372 C-94.20373708 107.47541498 -94.20313232 101.54074638 -94.20022202 95.60606575 C-94.19956168 93.11175596 -94.20034939 90.61744529 -94.20270157 88.12313652 C-94.21912395 65.8247203 -94.21912395 65.8247203 -93.62841797 54.85961914 C-93.59074373 54.15607772 -93.5530695 53.4525363 -93.51425362 52.72767544 C-92.55100696 37.34254546 -86.56100677 24.2755632 -75.296875 13.6484375 C-64.45264072 4.69894621 -51.44750456 1.0234862 -37.63305664 0.51611328 C-36.28203779 0.45971522 -36.28203779 0.45971522 -34.90372562 0.40217781 C-23.27291966 -0.03678887 -11.63726574 -0.01148094 0 0 Z " fill="#E05070" transform="translate(95.06640625,0.8671875)"/>
<path d="M0 0 C2.45556142 -0.0006761 4.91112277 -0.00164865 7.36668396 -0.00289917 C12.47712856 -0.00436148 17.58755552 -0.0022691 22.69799805 0.00244141 C29.19164973 0.00814081 35.68526008 0.0048489 42.17891026 -0.00113106 C47.23834027 -0.00477398 52.29776076 -0.00358114 57.35719109 -0.00100327 C59.74936872 -0.00034444 62.14154727 -0.0011251 64.53372383 -0.00348282 C75.74476782 -0.01211328 86.9399957 0.03218999 98.14038086 0.56298828 C99.33880914 0.61792859 99.33880914 0.61792859 100.5614481 0.67397881 C116.19926462 1.52215369 128.6432096 7.29334999 139.93359375 18.1328125 C149.25820104 28.68665239 152.86735712 41.54122226 153.48779297 55.30249023 C153.52990339 56.22085631 153.57201382 57.13922239 153.61540031 58.08541775 C154.10635361 69.85975454 154.07792098 81.63552321 154.06640625 93.41796875 C154.06708232 95.89595041 154.06805485 98.37393201 154.06930542 100.85191345 C154.07076788 106.00943645 154.06867488 111.16694195 154.06396484 116.32446289 C154.05826546 122.8786486 154.06155725 129.43279336 154.06753731 135.98697758 C154.07117986 141.0927307 154.06998755 146.19847439 154.06740952 151.30422783 C154.06675058 153.71873416 154.06753173 156.13324139 154.06988907 158.54774666 C154.07848874 169.82496329 154.03757235 181.08676184 153.50341797 192.35327148 C153.44847766 193.55046484 153.44847766 193.55046484 153.39242744 194.77184391 C152.62565804 208.88699453 147.82883278 221.82913959 137.93359375 232.1328125 C123.75645728 244.06364633 109.74963739 247.49650449 91.37890625 247.8125 C89.98624063 247.84516872 88.59359143 247.87854372 87.20095825 247.91256714 C70.73980894 248.28664746 54.27303568 248.28826247 37.80859375 248.2578125 C36.18940232 248.25553201 34.57021083 248.2532945 32.95101929 248.25109863 C22.65159682 248.23546726 12.35236437 248.19874345 2.0530777 248.14396667 C0.03219408 248.1333314 -1.98869418 248.12358861 -4.00958252 248.1138916 C-10.63901821 248.07949736 -17.26739428 248.02344929 -23.8961792 247.92327881 C-25.76577161 247.8968048 -27.63545978 247.87626103 -29.50518799 247.86236572 C-47.60512144 247.71162689 -63.89871202 244.93465002 -77.75390625 232.2578125 C-88.16265931 221.34204282 -93.06150274 207.66273376 -93.68310547 192.74633789 C-93.72070417 191.94062631 -93.75830288 191.13491472 -93.79704094 190.30478764 C-94.28177284 178.6486877 -94.21022824 166.98013703 -94.19921875 155.31640625 C-94.19989442 152.76351411 -94.20086662 150.21062203 -94.20211792 147.6577301 C-94.20358226 142.33862631 -94.20157979 137.01953999 -94.19677734 131.70043945 C-94.19133534 125.60364612 -94.19310412 119.50688625 -94.19860375 113.41009372 C-94.20373708 107.47541498 -94.20313232 101.54074638 -94.20022202 95.60606575 C-94.19956168 93.11175596 -94.20034939 90.61744529 -94.20270157 88.12313652 C-94.21912395 65.8247203 -94.21912395 65.8247203 -93.62841797 54.85961914 C-93.59074373 54.15607772 -93.5530695 53.4525363 -93.51425362 52.72767544 C-92.55100696 37.34254546 -86.56100677 24.2755632 -75.296875 13.6484375 C-64.45264072 4.69894621 -51.44750456 1.0234862 -37.63305664 0.51611328 C-36.28203779 0.45971522 -36.28203779 0.45971522 -34.90372562 0.40217781 C-23.27291966 -0.03678887 -11.63726574 -0.01148094 0 0 Z M-49.06640625 51.1328125 C-57.78619207 63.67706579 -61.16802866 76.90767072 -61.25927734 92.15332031 C-61.26745483 92.92361572 -61.27563232 93.69391113 -61.28405762 94.48754883 C-61.30872825 97.02033762 -61.3253896 99.55307064 -61.33984375 102.0859375 C-61.34516743 102.96047325 -61.3504911 103.835009 -61.3559761 104.73604584 C-61.38264159 109.37447733 -61.40202854 114.01288266 -61.41650391 118.65136719 C-61.42977156 122.45109511 -61.45749999 126.25027689 -61.49853516 130.04980469 C-61.54845564 134.67454378 -61.57269703 139.29879312 -61.57973099 143.92378998 C-61.58635116 145.66652541 -61.60132382 147.40925397 -61.6256218 149.15183258 C-61.88498295 168.89483977 -58.38396057 187.09500767 -44.5078125 201.83984375 C-33.8293984 211.86901027 -19.20386919 215.23338262 -4.88793945 215.27807617 C-4.20703247 215.28143478 -3.52612549 215.2847934 -2.82458496 215.28825378 C-0.5887668 215.29769432 1.64697568 215.29970452 3.8828125 215.30078125 C5.46157358 215.30400249 7.04033437 215.30736718 8.61909485 215.31086731 C11.93007089 215.31684424 15.2410209 215.31870908 18.55200195 215.31811523 C21.90817717 215.31803448 25.26421445 215.32489597 28.62036133 215.33862305 C69.87661142 217.17005191 69.87661142 217.17005191 105.96484375 200.32421875 C119.86700555 185.65987702 121.57827133 164.9455035 121.39453125 145.76953125 C121.39213589 144.0776229 121.3912438 142.38571185 121.39175415 140.69380188 C121.38866077 137.18363281 121.37236148 133.67388223 121.34521484 130.16381836 C121.31110821 125.70167043 121.30359233 121.23997594 121.30510521 116.77771282 C121.30455751 113.29693914 121.2935289 109.81626129 121.27910233 106.33551979 C121.27281577 104.69115735 121.26881494 103.04678428 121.26731491 101.40241051 C121.2290918 81.4290946 119.34179664 62.42275822 105.15625 47.203125 C89.63456972 32.74532087 67.03727851 32.81544273 47.08984375 32.796875 C45.42468155 32.79042074 43.7595204 32.78369062 42.09436035 32.77670288 C38.63205336 32.76484122 35.16984535 32.76101082 31.70751953 32.76220703 C27.31720071 32.76241048 22.92752719 32.73503114 18.53736115 32.70066261 C15.10708819 32.67820932 11.67696665 32.67437494 8.24662781 32.67542648 C6.62983462 32.67310111 5.01303522 32.66445566 3.39631653 32.64876175 C-15.53922621 32.4820079 -36.07205765 35.96468811 -49.06640625 51.1328125 Z " fill="#C55A88" transform="translate(95.06640625,0.8671875)"/>
<path d="M0 0 C1.67373714 -0.00135095 3.3474739 -0.00329504 5.02120972 -0.00579834 C8.51938637 -0.00873427 12.01746037 -0.0045048 15.515625 0.00488281 C19.95301655 0.01622309 24.39016462 0.00974262 28.82754707 -0.00226212 C32.28355669 -0.00956801 35.73951081 -0.00715237 39.19552231 -0.00200653 C40.82903956 -0.00069123 42.4625622 -0.00224149 44.09607315 -0.00696564 C63.72953842 -0.05126562 84.73345138 0.64842305 100.15234375 14.41796875 C115.3996522 30.12346009 115.89449875 50.00590727 115.98046875 70.57421875 C115.98454428 71.40403826 115.9886198 72.23385777 115.99281883 73.08882332 C116.01358947 77.48621486 116.02792661 81.88357608 116.03735352 86.28100586 C116.04836568 90.76881641 116.08273123 95.25612408 116.12252522 99.7437582 C116.14896874 103.2418749 116.15706984 106.739877 116.16063499 110.23808479 C116.16543412 111.88952064 116.17685066 113.5409538 116.19567299 115.19228935 C116.39232587 133.59668175 114.02257476 153.48151585 100.7734375 167.45703125 C80.02651389 185.92977285 49.78363731 182.62097298 23.8684082 182.58129883 C19.7427557 182.57547654 15.61754813 182.59255217 11.49196911 182.6156435 C8.25990801 182.63051006 5.02795145 182.63123586 1.7958622 182.62813377 C0.27594424 182.62863915 -1.24398084 182.63372526 -2.76386452 182.64394569 C-19.92969356 182.7453948 -37.62788911 180.76087103 -50.7578125 168.453125 C-57.65873985 160.77068238 -61.55944054 152.16374396 -64.2578125 142.265625 C-64.77009399 140.50532959 -64.77009399 140.50532959 -65.29272461 138.70947266 C-66.98577823 130.96147874 -66.56578681 122.90348958 -66.55859375 115.01171875 C-66.56248929 113.2244507 -66.5668257 111.43718357 -66.57157898 109.6499176 C-66.57901717 105.91038002 -66.57876891 102.17093686 -66.57348633 98.43139648 C-66.56771718 93.68338984 -66.58457241 88.93577653 -66.607831 84.18783474 C-66.62270617 80.4959138 -66.62342114 76.80408436 -66.62032127 73.11213875 C-66.62082833 71.36417937 -66.62594778 69.616214 -66.63613319 67.86828423 C-66.73297331 48.91571121 -65.11333595 29.44705234 -51.2578125 15.00390625 C-36.28282695 1.98853795 -19.01517597 -0.05451922 0 0 Z M-42.81640625 30.14453125 C-50.31105443 41.15299074 -49.70348287 53.35061985 -49.65625 66.10546875 C-49.65827461 68.03780731 -49.66118927 69.97014512 -49.66494751 71.90248108 C-49.66935368 75.93953777 -49.66299573 79.97639442 -49.64892578 84.01342773 C-49.63184654 89.16210607 -49.64167808 94.3103147 -49.65964317 99.45897579 C-49.67053713 103.4458005 -49.66700884 107.43251576 -49.6592598 111.41934395 C-49.65727267 113.31656514 -49.65966416 115.21379659 -49.66669846 117.11100578 C-49.70852482 131.56139393 -49.38194769 144.80092968 -39.0078125 155.953125 C-31.07694054 163.49506294 -21.23714035 165.56880957 -10.58544922 165.55615234 C-9.75820847 165.56286957 -8.93096771 165.56958679 -8.07865906 165.57650757 C-5.36487689 165.59538244 -2.65134359 165.59940692 0.0625 165.6015625 C1.96808978 165.60799948 3.87367859 165.61472849 5.77926636 165.62173462 C9.76855761 165.63368245 13.75776244 165.63741819 17.74707031 165.63623047 C22.82383604 165.63602783 27.90003854 165.66328409 32.97667122 165.69777489 C36.91299918 165.72017191 40.84919456 165.72406405 44.78557968 165.72301102 C46.65522062 165.72534952 48.52486622 165.73407261 50.39444351 165.74967575 C63.51014527 165.84886053 77.57009507 165.89992496 88.1328125 156.89453125 C96.87341787 148.04785057 98.87742377 137.85012205 98.91918945 125.69677734 C98.92904625 124.43690506 98.92904625 124.43690506 98.93910217 123.15158081 C98.95873517 120.38490695 98.97047656 117.61828717 98.98046875 114.8515625 C98.98454428 113.90117725 98.9886198 112.95079201 98.99281883 111.97160721 C99.01363887 106.9392443 99.02795708 101.90690831 99.03735352 96.87451172 C99.04839821 91.70336422 99.08278758 86.53264931 99.12252522 81.36165428 C99.14879587 77.36194107 99.15705468 73.36232926 99.16063499 69.36253738 C99.16547541 67.45774037 99.17701582 65.55294711 99.19567299 63.64823532 C99.31960548 50.1554917 98.91130218 37.96550912 89.71484375 27.16796875 C78.36401064 16.22171979 62.51383718 16.80143072 47.83984375 16.83203125 C45.91132932 16.827461 43.98281652 16.82215294 42.05430603 16.81614685 C38.02742871 16.80725102 34.00075008 16.80959867 29.97387695 16.81958008 C24.84204373 16.83106797 19.71089883 16.81084274 14.57915592 16.78166294 C10.60086289 16.76321958 6.62273238 16.7636095 2.64440727 16.76930046 C0.75358553 16.76945267 -1.13724795 16.76349273 -3.02802849 16.75100899 C-18.19525267 16.66495278 -32.40397075 17.59219672 -42.81640625 30.14453125 Z " fill="#FDFAFB" transform="translate(100.2578125,33.734375)"/>
<path d="M0 0 C0.8765625 0.49628906 1.753125 0.99257812 2.65625 1.50390625 C12.92815531 7.92384707 19.47457605 18.42372815 23.25 29.75 C26.21672338 43.23269821 22.89475614 55.63726887 16.08007812 67.32373047 C9.73792337 77.16668584 -0.75107341 84.07183419 -12 87 C-15.4415187 87.30488917 -18.85919238 87.32471977 -22.3125 87.3125 C-23.21162109 87.32861328 -24.11074219 87.34472656 -25.03710938 87.36132812 C-37.43576099 87.37029317 -47.59596475 82.30432252 -56.6875 74 C-66.03464281 64.18881464 -70.56376378 51.23719957 -70.24609375 37.8203125 C-69.12337994 24.9536558 -63.13313351 14.12050411 -53.86328125 5.30078125 C-39.05094116 -6.60163118 -16.77707751 -10.17498682 0 0 Z " fill="#FEFCFC" transform="translate(148,84)"/>
<path d="M0 0 C7.39270187 4.92362659 13.13635791 10.76844873 15.98828125 19.32421875 C16.81583161 30.63859579 15.97241108 38.72743963 8.61328125 47.63671875 C3.16446473 53.48054543 -2.50614243 56.84863014 -10.52734375 57.6953125 C-21.07558651 57.88288585 -28.06347376 56.20778377 -35.88671875 49.01171875 C-42.84649497 41.51026183 -44.57367565 33.20361084 -44.3515625 23.1953125 C-43.65723723 15.28638897 -39.83910478 9.13973139 -34 3.86328125 C-24.24557824 -3.68729277 -11.28940487 -6.0592851 0 0 Z " fill="#EF4D5D" transform="translate(139.01171875,97.67578125)"/>
<path d="M0 0 C2.87029869 1.79393668 4.49131638 2.98263276 6 6 C6.55512815 10.63213493 6.6364242 13.98172127 4.125 18 C0.59185943 21.32530877 -2.04661263 21.33074386 -6.73828125 21.29296875 C-10.0542278 20.86344199 -11.74987627 19.39075646 -14 17 C-15.72869779 13.54260443 -15.48966895 9.78024432 -15 6 C-11.10231905 -0.23628951 -6.98983895 -0.90541955 0 0 Z " fill="#FDFAFC" transform="translate(178,66)"/>
</svg>
